<svg width="72" height="53" viewBox="0 0 72 53" fill="none" xmlns="http://www.w3.org/2000/svg">
<path d="M14.6513 52.696C24.3459 52.696 31.9525 42.7528 34.6371 26.5455C37.3218 10.3381 32.9965 0.394884 23.3019 0.394884C13.6073 0.394884 6.10019 10.3878 3.41553 26.5455C0.730869 42.8026 4.95672 52.696 14.6513 52.696ZM14.7508 51.1051C5.85161 51.1051 2.52064 41.4851 5.00644 26.5455C7.59166 10.8601 14.701 1.98579 23.3019 1.98579C32.1016 1.98579 35.5071 11.6555 33.0462 26.5455C30.4361 42.2805 23.2522 51.1051 14.7508 51.1051ZM50.6076 52.696C59.5565 52.696 66.7156 46.6307 68.0082 38.7756C69.1019 32.3125 65.6218 27.4403 59.2582 25.75V25.5511C65.3235 23.8608 69.798 19.3864 70.6928 13.4205C71.9855 5.96307 67.2127 0.394884 59.1587 0.394884C51.2042 0.394884 44.4428 5.96307 43.1502 13.8182H44.7411C45.8349 6.85795 52.1985 1.98579 59.2582 1.98579C66.5167 1.98579 70.1957 6.85795 69.1019 13.4205C68.0082 20.4801 61.3462 24.9545 53.69 24.9545H52.8945L52.6957 26.5455H53.4911C62.1417 26.5455 67.6105 31.4176 66.4173 38.7756C65.3235 45.5369 58.6616 51.1051 50.6076 51.1051C42.9514 51.1051 38.1786 46.1335 39.2724 39.2727H37.6815C36.3889 47.0284 42.0565 52.696 50.6076 52.696Z" fill="black" fill-opacity="0.15"/>
</svg>
