<svg width="63" height="53" viewBox="0 0 63 53" fill="none" xmlns="http://www.w3.org/2000/svg">
<path d="M14.6513 52.696C24.3459 52.696 31.9525 42.7528 34.6371 26.5455C37.3218 10.3381 32.9965 0.394884 23.3019 0.394884C13.6073 0.394884 6.10019 10.3878 3.41553 26.5455C0.730869 42.8026 4.95672 52.696 14.6513 52.696ZM14.7508 51.1051C5.85161 51.1051 2.52064 41.4851 5.00644 26.5455C7.59166 10.8601 14.701 1.98579 23.3019 1.98579C32.1016 1.98579 35.5071 11.6555 33.0462 26.5455C30.4361 42.2805 23.2522 51.1051 14.7508 51.1051ZM62.0423 1.09091H59.8548L48.0224 8.15057L47.7241 10.0398L59.8548 2.78125H60.1531L51.9997 52H53.5906L62.0423 1.09091Z" fill="black" fill-opacity="0.15"/>
</svg>
