<svg width="71" height="53" viewBox="0 0 71 53" fill="none" xmlns="http://www.w3.org/2000/svg">
<path d="M14.5031 52.696C24.1977 52.696 31.8043 42.7528 34.4889 26.5455C37.1736 10.3381 32.8483 0.394884 23.1537 0.394884C13.4591 0.394884 5.95199 10.3878 3.26734 26.5455C0.582676 42.8026 4.80853 52.696 14.5031 52.696ZM14.6026 51.1051C5.70341 51.1051 2.37245 41.4851 4.85824 26.5455C7.44347 10.8601 14.5528 1.98579 23.1537 1.98579C31.9534 1.98579 35.359 11.6555 32.898 26.5455C30.2879 42.2805 23.104 51.1051 14.6026 51.1051ZM34.8486 52H65.5731L65.8714 50.4091H37.6327V50.2102L55.6299 32.4119C64.9765 23.1648 68.0589 19.1875 68.9537 13.5199C70.2464 5.96307 65.4736 0.394884 57.8174 0.394884C49.8628 0.394884 43.3003 6.46023 42.1071 13.8182H43.6981C44.7918 7.35511 50.7577 1.98579 57.8174 1.98579C64.5787 1.98579 68.4566 6.85795 67.3628 13.5199C66.5674 18.5909 63.7833 22.3693 54.5361 31.4176L35.0475 50.7074L34.8486 52Z" fill="black" fill-opacity="0.15"/>
</svg>
