<svg width="69" height="53" viewBox="0 0 69 53" fill="none" xmlns="http://www.w3.org/2000/svg">
<path d="M14.5031 52.696C24.1977 52.696 31.8043 42.7528 34.4889 26.5455C37.1736 10.3381 32.8483 0.394884 23.1537 0.394884C13.4591 0.394884 5.95199 10.3878 3.26734 26.5455C0.582676 42.8026 4.80853 52.696 14.5031 52.696ZM14.6026 51.1051C5.70341 51.1051 2.37245 41.4851 4.85824 26.5455C7.44347 10.8601 14.5528 1.98579 23.1537 1.98579C31.9534 1.98579 35.359 11.6555 32.898 26.5455C30.2879 42.2805 23.104 51.1051 14.6026 51.1051ZM36.6384 40.0682H60.0297L58.0162 52H59.6071L61.5958 40.0682H67.9594L68.2577 38.4773H61.8444L68.0589 1.09091H66.4679L36.8373 38.875L36.6384 40.0682ZM60.3032 38.4773H39.2236V38.2784L65.7719 4.37216H65.9211L60.3032 38.4773Z" fill="black" fill-opacity="0.15"/>
</svg>
